<svg xmlns="http://www.w3.org/2000/svg" viewBox="0 0 36 36"><defs><style>.cls-1{fill:#f5f8fa;}.cls-2{fill:#217ad9;}</style></defs><g id="图层_2" data-name="图层 2"><g id="图层_1-2" data-name="图层 1"><rect class="cls-1" width="36" height="36" rx="4"/><path class="cls-2" d="M27,25a4,4,0,1,0-4-4A4,4,0,0,0,27,25Zm0,1a7,7,0,0,0-6.91,5.86,1,1,0,0,0,1,1.14H32.91a1,1,0,0,0,1-1.14A7,7,0,0,0,27,26Zm-5-2a3,3,0,1,0-3,3A3,3,0,0,0,22,24Zm-3,1a1,1,0,1,1,1-1A1,1,0,0,1,19,25ZM33.5,11a.5.5,0,0,0,0-1H32V9h1.5a.5.5,0,0,0,0-1H32V7.5a.5.5,0,0,0-1,0v4.55a2.5,2.5,0,1,0,1,0V11ZM33,14.5A1.5,1.5,0,1,1,31.5,13,1.5,1.5,0,0,1,33,14.5ZM15,9h8a1,1,0,0,0,0-2H15a1,1,0,0,0,0,2Zm0,5h8a1,1,0,0,0,0-2H15a1,1,0,0,0,0,2ZM12,31V5a1,1,0,0,1,1-1H25a1,1,0,0,1,1,1V15h2V5a3,3,0,0,0-3-3H13a3,3,0,0,0-3,3V6H6A3,3,0,0,0,3,9V28a3,3,0,0,0,3,3h4a3,3,0,0,0,3,3h5V32H13A1,1,0,0,1,12,31ZM10,11H8a1,1,0,0,0,0,2h2v2H8a1,1,0,0,0,0,2h2V29H6a1,1,0,0,1-1-1V9A1,1,0,0,1,6,8h4Z"/></g></g></svg>