<svg xmlns="http://www.w3.org/2000/svg" viewBox="0 0 36 36"><defs><style>.cls-1{fill:#bfdeff;}.cls-2{fill:#217ad9;}</style></defs><g id="图层_2" data-name="图层 2"><g id="图层_1-2" data-name="图层 1"><rect class="cls-1" width="36" height="36" rx="4"/><path class="cls-2" d="M32.62,19.29,29.52,5.35A3,3,0,0,0,26.59,3H9.41A3,3,0,0,0,6.48,5.35L3.38,19.29A16.18,16.18,0,0,0,3,22.76V30a3,3,0,0,0,3,3H30a3,3,0,0,0,3-3V22.76A16.18,16.18,0,0,0,32.62,19.29Zm-27.29.43L8.43,5.78a1,1,0,0,1,1-.78H26.59a1,1,0,0,1,1,.78l3.1,13.94.06.38A3,3,0,0,0,30,20H6a3,3,0,0,0-.73.1ZM31,30a1,1,0,0,1-1,1H6a1,1,0,0,1-1-1V23a1,1,0,0,1,1-1H30a1,1,0,0,1,1,1ZM9.5,24A2.5,2.5,0,1,0,12,26.5,2.5,2.5,0,0,0,9.5,24ZM16,24a1,1,0,0,0-1,1v3a1,1,0,0,0,2,0V25A1,1,0,0,0,16,24Zm4,0a1,1,0,0,0-1,1v3a1,1,0,0,0,2,0V25A1,1,0,0,0,20,24Zm4,0a1,1,0,0,0-1,1v3a1,1,0,0,0,2,0V25A1,1,0,0,0,24,24Zm4,0a1,1,0,0,0-1,1v3a1,1,0,0,0,2,0V25A1,1,0,0,0,28,24ZM10,17h4.37a1,1,0,0,0,.8-.39l2-2.66,1.59,2.58a1,1,0,0,0,.85.47h2.64v1.49L26.59,16l-4.32-2.49V15H20.19l-1.71-2.75L20.19,10h2.08v1.49L26.59,9,22.27,6.51V8H19.7a1,1,0,0,0-.8.39l-1.54,2L16.15,8.47A1,1,0,0,0,15.3,8H11a1,1,0,0,0,0,2h3.75l1.31,2.13L13.88,15H10a1,1,0,0,0,0,2Z"/></g></g></svg>