<svg xmlns="http://www.w3.org/2000/svg" viewBox="0 0 36 36"><defs><style>.cls-1{fill:#f5f8fa;}.cls-2{fill:#217ad9;}</style></defs><g id="图层_2" data-name="图层 2"><g id="图层_1-2" data-name="图层 1"><rect class="cls-1" width="36" height="36" rx="4"/><path class="cls-2" d="M24,12h5a1,1,0,0,0,0-2H24a1,1,0,0,0,0,2Zm0,4h5a1,1,0,0,0,0-2H24a1,1,0,0,0,0,2ZM16,29H8a1,1,0,0,0,0,2h8a1,1,0,0,0,0-2Zm8.5-3a2,2,0,1,0,2-2A2,2,0,0,0,24.5,26ZM22,23V13a3,3,0,0,0-3-3H5a3,3,0,0,0-3,3V23a3,3,0,0,0,3,3H19A3,3,0,0,0,22,23ZM4,23V13a1,1,0,0,1,1-1H19a1,1,0,0,1,1,1V23a1,1,0,0,1-1,1H5A1,1,0,0,1,4,23ZM31,3H22a3,3,0,0,0-3,3V8h2V6a1,1,0,0,1,1-1h9a1,1,0,0,1,1,1V30a1,1,0,0,1-1,1H22a1,1,0,0,1-1-1V28H19v2a3,3,0,0,0,3,3h9a3,3,0,0,0,3-3V6A3,3,0,0,0,31,3ZM14.76,16l-2,2.62L9.6,16.2a1,1,0,0,0-1.4.2l-3,4a1,1,0,0,0,.2,1.4A1,1,0,0,0,6,22a1,1,0,0,0,.8-.4l2.4-3.2,3.2,2.4a1,1,0,0,0,1.4-.2l2.56-3.42,1.2.9.59-4.95-4.58,2ZM12,7h5V5H12A3,3,0,0,0,9,8h2A1,1,0,0,1,12,7Z"/></g></g></svg>