<?xml version="1.0" encoding="UTF-8" standalone="no"?>
<svg
   xmlns:dc="http://purl.org/dc/elements/1.1/"
   xmlns:cc="http://creativecommons.org/ns#"
   xmlns:rdf="http://www.w3.org/1999/02/22-rdf-syntax-ns#"
   xmlns:svg="http://www.w3.org/2000/svg"
   xmlns="http://www.w3.org/2000/svg"
   xmlns:sodipodi="http://sodipodi.sourceforge.net/DTD/sodipodi-0.dtd"
   xmlns:inkscape="http://www.inkscape.org/namespaces/inkscape"
   t="1557219877668"
   class="icon"
   viewBox="0 0 128 128"
   version="1.1"
   p-id="25426"
   width="128"
   height="128"
   id="svg3795"
   sodipodi:docname="customer-track.svg"
   inkscape:version="0.92.4 (5da689c313, 2019-01-14)">
  <metadata
     id="metadata3799">
    <rdf:RDF>
      <cc:Work
         rdf:about="">
        <dc:format>image/svg+xml</dc:format>
        <dc:type
           rdf:resource="http://purl.org/dc/dcmitype/StillImage" />
      </cc:Work>
    </rdf:RDF>
  </metadata>
  <sodipodi:namedview
     pagecolor="#ffffff"
     bordercolor="#666666"
     borderopacity="1"
     objecttolerance="10"
     gridtolerance="10"
     guidetolerance="10"
     inkscape:pageopacity="0"
     inkscape:pageshadow="2"
     inkscape:window-width="1920"
     inkscape:window-height="1001"
     id="namedview3797"
     showgrid="false"
     inkscape:zoom="1.84375"
     inkscape:cx="301.33332"
     inkscape:cy="28.782463"
     inkscape:window-x="2391"
     inkscape:window-y="-9"
     inkscape:window-maximized="1"
     inkscape:current-layer="svg3795" />
  <defs
     id="defs3791">
    <style
       type="text/css"
       id="style3789" />
  </defs>
  <path
     d="m 121.40773,60.27631 h -4.04988 C 115.46303,33.780667 94.150699,12.650946 67.428772,10.773077 l 5.46e-4,-4.0074809 c 0,-2.1092317 -1.726846,-3.8222707 -3.856387,-3.8222707 -2.128936,0 -3.853975,1.7130392 -3.853975,3.8222707 V 10.773077 C 32.99551,12.650946 11.683173,33.780667 9.7904104,60.27631 H 5.7401716 c -2.1291779,0 -3.8560288,1.710042 -3.8560288,3.820712 0,2.111031 1.7268509,3.824071 3.8560288,3.824071 H 9.7904104 C 11.683173,94.413738 32.99551,115.54501 59.71901,117.42348 v 4.00748 c 0,2.11103 1.725037,3.82047 3.853973,3.82047 2.130145,0 3.85639,-1.70944 3.85639,-3.82047 v -4.00748 C 94.150699,115.54501 115.46303,94.413738 117.35797,67.921093 h 4.04987 c 2.12894,0 3.85518,-1.71304 3.85518,-3.824071 -0.002,-2.110308 -1.72635,-3.820712 -3.85529,-3.820712 z m -15.42062,7.644901 h 3.6605 C 107.78835,90.195516 89.896456,107.93955 67.429373,109.78025 V 106.142 c 0,-2.11104 -1.72685,-3.82288 -3.85639,-3.82288 -2.128936,0 -3.853973,1.71184 -3.853973,3.82288 v 3.63825 C 37.249393,107.93955 19.357865,90.195397 17.500773,67.921211 h 3.659523 c 2.129539,0 3.856028,-1.713039 3.856028,-3.824071 0,-2.110426 -1.726489,-3.820711 -3.856028,-3.820711 H 17.500773 C 19.357865,37.99949 37.249755,20.258326 59.71901,18.417618 v 3.637063 c 0,2.111028 1.725037,3.822268 3.853973,3.822268 2.130145,0 3.85639,-1.71124 3.85639,-3.822268 v -3.637063 c 22.467083,1.840708 40.358977,19.581872 42.218237,41.858811 h -3.6605 c -2.13013,0 -3.85517,1.710042 -3.85517,3.820711 0,2.111032 1.72504,3.824071 3.85517,3.824071 z M 63.576611,50.723089 c -7.453635,0 -13.494589,5.988685 -13.494589,13.37765 0,7.387409 6.040954,13.377649 13.494589,13.377649 7.453391,0 13.494347,-5.99024 13.494347,-13.377649 -1.24e-4,-7.388965 -6.040956,-13.37765 -13.494347,-13.37765 z"
     p-id="25427"
     id="path3793"
     inkscape:connector-curvature="0"
     style="stroke-width:0.12057037" />
</svg>
